<?xml version="1.0" encoding="UTF-8" standalone="no"?>
<svg
   xmlns:dc="http://purl.org/dc/elements/1.1/"
   xmlns:cc="http://creativecommons.org/ns#"
   xmlns:rdf="http://www.w3.org/1999/02/22-rdf-syntax-ns#"
   xmlns:svg="http://www.w3.org/2000/svg"
   xmlns="http://www.w3.org/2000/svg"
   xmlns:sodipodi="http://sodipodi.sourceforge.net/DTD/sodipodi-0.dtd"
   xmlns:inkscape="http://www.inkscape.org/namespaces/inkscape"
   sodipodi:docname="logo.svg"
   inkscape:version="1.0 (4035a4fb49, 2020-05-01)"
   id="svg1557"
   version="1.1"
   viewBox="0 0 210 297"
   height="297mm"
   width="210mm">
  <defs
     id="defs1551">
    <rect
       id="rect880"
       height="66.187874"
       width="232.20914"
       y="37.506462"
       x="271.92188" />
    <rect
       id="rect2129"
       height="66.187874"
       width="232.20914"
       y="37.506462"
       x="271.92188" />
    <rect
       x="271.92188"
       y="37.506462"
       width="232.20914"
       height="66.187874"
       id="rect880-7" />
    <rect
       x="271.92188"
       y="37.506462"
       width="232.20914"
       height="66.187874"
       id="rect2132" />
  </defs>
  <sodipodi:namedview
     inkscape:window-maximized="0"
     inkscape:window-y="1"
     inkscape:window-x="2154"
     inkscape:window-height="864"
     inkscape:window-width="1536"
     showgrid="false"
     inkscape:document-rotation="0"
     inkscape:current-layer="layer1"
     inkscape:document-units="mm"
     inkscape:cy="560"
     inkscape:cx="400"
     inkscape:zoom="0.35"
     inkscape:pageshadow="2"
     inkscape:pageopacity="0.0"
     borderopacity="1.0"
     bordercolor="#666666"
     pagecolor="#ffffff"
     id="base" />
  <metadata
     id="metadata1554">
    <rdf:RDF>
      <cc:Work
         rdf:about="">
        <dc:format>image/svg+xml</dc:format>
        <dc:type
           rdf:resource="http://purl.org/dc/dcmitype/StillImage" />
        <dc:title></dc:title>
      </cc:Work>
    </rdf:RDF>
  </metadata>
  <g
     id="layer1"
     inkscape:groupmode="layer"
     inkscape:label="Слой 1">
    <path
       inkscape:export-ydpi="95"
       inkscape:export-xdpi="95"
       transform="matrix(0.17232007,0.03302207,-0.03680223,0.17031788,9.3467674,63.93995)"
       d="m 243.75,-6.8515625 c -0.33464,0.00821 -0.67973,0.061075 -1.01562,0.074219 -45.61047,0.0012 -91.22591,-0.00259 -136.84766,0.00195 -37.308586,-0.047846 -62.161874,27.8376256 -60.816408,62.4042966 0.0037,45.669994 -0.008,91.356004 0.0059,137.060544 a 57.73145,57.73145 0 0 0 0.02344,1.58008 c 1.013524,36.62357 28.568242,60.38093 62.410161,59.05664 45.65894,-0.004 91.33387,0.008 137.02734,-0.006 a 57.73145,57.73145 0 0 0 1.58008,-0.0234 c 36.62307,-1.01351 60.3805,-28.56691 59.05664,-62.40821 -0.004,-45.65959 0.008,-91.335176 -0.006,-137.029295 a 57.73145,57.73145 0 0 0 -0.0234,-1.580078 C 304.14107,16.019327 277.13017,-7.6700546 243.75,-6.8515625 Z"
       inkscape:original="M 243.94336 50.949219 C 197.89962 50.950519 151.85621 50.946572 105.8125 50.951172 C 104.01905 50.948872 102.58121 52.699757 102.79688 54.453125 C 102.80088 100.52614 102.78873 146.59905 102.80273 192.67188 C 102.85143 194.43165 104.57962 195.80828 106.30078 195.59961 C 152.37379 195.59561 198.4467 195.60775 244.51953 195.59375 C 246.27931 195.54505 247.65593 193.81687 247.44727 192.0957 C 247.44327 146.02269 247.45541 99.949783 247.44141 53.876953 C 247.39271 52.117178 245.66452 50.740552 243.94336 50.949219 z "
       inkscape:radius="57.725677"
       sodipodi:type="inkscape:offset"
       style="opacity:1;fill:#c15bff;fill-opacity:1;stroke:none;stroke-width:6.64819;stroke-linecap:round;stroke-linejoin:round;stroke-miterlimit:4;stroke-dasharray:none;paint-order:stroke fill markers"
       id="rect850" />
    <path
       inkscape:export-ydpi="95"
       inkscape:export-xdpi="95"
       id="rect850-0"
       style="opacity:1;fill:#495aff;fill-opacity:1;stroke:none;stroke-width:6.64819;stroke-linecap:round;stroke-linejoin:round;stroke-miterlimit:4;stroke-dasharray:none;paint-order:stroke fill markers"
       sodipodi:type="inkscape:offset"
       inkscape:radius="57.725677"
       inkscape:original="M 243.94336 50.949219 C 197.89962 50.950519 151.85621 50.946572 105.8125 50.951172 C 104.01905 50.948872 102.58121 52.699757 102.79688 54.453125 C 102.80088 100.52614 102.78873 146.59905 102.80273 192.67188 C 102.85143 194.43165 104.57962 195.80828 106.30078 195.59961 C 152.37379 195.59561 198.4467 195.60775 244.51953 195.59375 C 246.27931 195.54505 247.65593 193.81687 247.44727 192.0957 C 247.44327 146.02269 247.45541 99.949783 247.44141 53.876953 C 247.39271 52.117178 245.66452 50.740552 243.94336 50.949219 z "
       d="m 243.75,-6.8515625 c -0.33464,0.00821 -0.67973,0.061075 -1.01562,0.074219 -45.61047,0.0012 -91.22591,-0.00259 -136.84766,0.00195 -37.308586,-0.047846 -62.161874,27.8376256 -60.816408,62.4042966 0.0037,45.669994 -0.008,91.356004 0.0059,137.060544 a 57.73145,57.73145 0 0 0 0.02344,1.58008 c 1.013524,36.62357 28.568242,60.38093 62.410161,59.05664 45.65894,-0.004 91.33387,0.008 137.02734,-0.006 a 57.73145,57.73145 0 0 0 1.58008,-0.0234 c 36.62307,-1.01351 60.3805,-28.56691 59.05664,-62.40821 -0.004,-45.65959 0.008,-91.335176 -0.006,-137.029295 a 57.73145,57.73145 0 0 0 -0.0234,-1.580078 C 304.14107,16.019327 277.13017,-7.6700546 243.75,-6.8515625 Z"
       transform="matrix(0.17430812,-0.02003348,0.01582749,0.17352832,2.5119976,72.926451)" />
    <text
       inkscape:export-ydpi="95"
       inkscape:export-xdpi="95"
       transform="matrix(0.26458333,0,0,0.26458333,-1.1377184,62.198517)"
       style="font-style:normal;font-weight:normal;font-size:40px;line-height:1.25;font-family:sans-serif;white-space:pre;shape-inside:url(#rect880);fill:#000000;fill-opacity:1;stroke:none;"
       id="text878"
       xml:space="preserve"><tspan
         x="271.92188"
         y="89.551717"><tspan
           style="font-style:normal;font-variant:normal;font-weight:bold;font-stretch:normal;font-size:58.6667px;font-family:'Microsoft YaHei';-inkscape-font-specification:'Microsoft YaHei Bold';fill:#ffffff;fill-opacity:1">web</tspan></tspan></text>
    <text
       inkscape:export-ydpi="95"
       inkscape:export-xdpi="95"
       transform="matrix(0.26458333,0,0,0.26458333,-1.6059774,85.40036)"
       xml:space="preserve"
       id="text878-7"
       style="font-style:normal;font-weight:normal;font-size:40px;line-height:1.25;font-family:sans-serif;white-space:pre;shape-inside:url(#rect880-7);fill:#000000;fill-opacity:1;stroke:none;"><tspan
         x="271.92188"
         y="89.551717"><tspan
           style="font-style:normal;font-variant:normal;font-weight:bold;font-stretch:normal;font-size:58.6667px;font-family:'Microsoft YaHei';-inkscape-font-specification:'Microsoft YaHei Bold';fill:#ffffff;fill-opacity:1">stream</tspan></tspan></text>
    <path
       inkscape:export-ydpi="95"
       inkscape:export-xdpi="95"
       sodipodi:type="star"
       style="fill:none;fill-opacity:1;stroke:#ffffff;stroke-width:2.59283;stroke-linejoin:round;stroke-miterlimit:4;stroke-dasharray:none;stroke-opacity:1"
       id="path905"
       sodipodi:sides="6"
       sodipodi:cx="210.33981"
       sodipodi:cy="104.70076"
       sodipodi:r1="10.033233"
       sodipodi:r2="8.6890345"
       sodipodi:arg1="1.61159"
       sodipodi:arg2="2.1351888"
       inkscape:flatsided="true"
       inkscape:rounded="0"
       inkscape:randomized="0"
       d="m 209.93063,114.72565 -8.47721,-5.36681 0.40918,-10.024882 8.88639,-4.658084 8.47722,5.366806 -0.40918,10.02488 z"
       transform="matrix(0.40677317,-0.26091178,0.26091178,0.40677317,-69.484313,97.119844)" />
    <path
       inkscape:export-ydpi="95"
       inkscape:export-xdpi="95"
       transform="matrix(0.40677317,-0.26091178,0.26091178,0.40677317,-76.782048,92.963965)"
       d="m 209.93063,114.72565 -8.47721,-5.36681 0.40918,-10.024882 8.88639,-4.658084 8.47722,5.366806 -0.40918,10.02488 z"
       inkscape:randomized="0"
       inkscape:rounded="0"
       inkscape:flatsided="true"
       sodipodi:arg2="2.1351888"
       sodipodi:arg1="1.61159"
       sodipodi:r2="8.6890345"
       sodipodi:r1="10.033233"
       sodipodi:cy="104.70076"
       sodipodi:cx="210.33981"
       sodipodi:sides="6"
       id="path905-4"
       style="fill:none;fill-opacity:1;stroke:#ffffff;stroke-width:2.59283;stroke-linejoin:round;stroke-miterlimit:4;stroke-dasharray:none;stroke-opacity:1"
       sodipodi:type="star" />
    <path
       inkscape:export-ydpi="95"
       inkscape:export-xdpi="95"
       transform="matrix(0.40677317,-0.26091178,0.26091178,0.40677317,-84.030012,97.206048)"
       d="m 209.93063,114.72565 -8.47721,-5.36681 0.40918,-10.024882 8.88639,-4.658084 8.47722,5.366806 -0.40918,10.02488 z"
       inkscape:randomized="0"
       inkscape:rounded="0"
       inkscape:flatsided="true"
       sodipodi:arg2="2.1351888"
       sodipodi:arg1="1.61159"
       sodipodi:r2="8.6890345"
       sodipodi:r1="10.033233"
       sodipodi:cy="104.70076"
       sodipodi:cx="210.33981"
       sodipodi:sides="6"
       id="path905-3"
       style="fill:none;fill-opacity:1;stroke:#ffffff;stroke-width:2.59283;stroke-linejoin:round;stroke-miterlimit:4;stroke-dasharray:none;stroke-opacity:1"
       sodipodi:type="star" />
    <path
       inkscape:export-ydpi="95"
       inkscape:export-xdpi="95"
       transform="matrix(0.40677317,-0.26091178,0.26091178,0.40677317,-83.980241,105.60401)"
       d="m 209.93063,114.72565 -8.47721,-5.36681 0.40918,-10.024882 8.88639,-4.658084 8.47722,5.366806 -0.40918,10.02488 z"
       inkscape:randomized="0"
       inkscape:rounded="0"
       inkscape:flatsided="true"
       sodipodi:arg2="2.1351888"
       sodipodi:arg1="1.61159"
       sodipodi:r2="8.6890345"
       sodipodi:r1="10.033233"
       sodipodi:cy="104.70076"
       sodipodi:cx="210.33981"
       sodipodi:sides="6"
       id="path905-35"
       style="fill:none;fill-opacity:1;stroke:#ffffff;stroke-width:2.59283;stroke-linejoin:round;stroke-miterlimit:4;stroke-dasharray:none;stroke-opacity:1"
       sodipodi:type="star" />
    <path
       inkscape:export-ydpi="95"
       inkscape:export-xdpi="95"
       transform="matrix(0.40677317,-0.26091178,0.26091178,0.40677317,-76.682506,109.75989)"
       d="m 209.93063,114.72565 -8.47721,-5.36681 0.40918,-10.024882 8.88639,-4.658084 8.47722,5.366806 -0.40918,10.02488 z"
       inkscape:randomized="0"
       inkscape:rounded="0"
       inkscape:flatsided="true"
       sodipodi:arg2="2.1351888"
       sodipodi:arg1="1.61159"
       sodipodi:r2="8.6890345"
       sodipodi:r1="10.033233"
       sodipodi:cy="104.70076"
       sodipodi:cx="210.33981"
       sodipodi:sides="6"
       id="path905-8"
       style="fill:none;fill-opacity:1;stroke:#ffffff;stroke-width:2.59283;stroke-linejoin:round;stroke-miterlimit:4;stroke-dasharray:none;stroke-opacity:1"
       sodipodi:type="star" />
  </g>
</svg>
