<?xml version="1.0" encoding="UTF-8" standalone="no"?>
<svg
   xmlns:dc="http://purl.org/dc/elements/1.1/"
   xmlns:cc="http://creativecommons.org/ns#"
   xmlns:rdf="http://www.w3.org/1999/02/22-rdf-syntax-ns#"
   xmlns:svg="http://www.w3.org/2000/svg"
   xmlns="http://www.w3.org/2000/svg"
   xmlns:sodipodi="http://sodipodi.sourceforge.net/DTD/sodipodi-0.dtd"
   xmlns:inkscape="http://www.inkscape.org/namespaces/inkscape"
   sodipodi:docname="рисунок.svg"
   inkscape:version="1.0 (4035a4fb49, 2020-05-01)"
   id="svg8"
   version="1.1"
   viewBox="0 0 210 297"
   height="297mm"
   width="210mm">
  <defs
     id="defs2" />
  <sodipodi:namedview
     inkscape:window-maximized="1"
     inkscape:window-y="-8"
     inkscape:window-x="1912"
     inkscape:window-height="1017"
     inkscape:window-width="1920"
     showgrid="false"
     inkscape:document-rotation="0"
     inkscape:current-layer="layer1"
     inkscape:document-units="mm"
     inkscape:cy="621.68747"
     inkscape:cx="308.64514"
     inkscape:zoom="0.7"
     inkscape:pageshadow="2"
     inkscape:pageopacity="0.0"
     borderopacity="1.0"
     bordercolor="#666666"
     pagecolor="#ffffff"
     id="base" />
  <metadata
     id="metadata5">
    <rdf:RDF>
      <cc:Work
         rdf:about="">
        <dc:format>image/svg+xml</dc:format>
        <dc:type
           rdf:resource="http://purl.org/dc/dcmitype/StillImage" />
        <dc:title></dc:title>
      </cc:Work>
    </rdf:RDF>
  </metadata>
  <g
     id="layer1"
     inkscape:groupmode="layer"
     inkscape:label="Слой 1">
    <g
       transform="matrix(0.16417161,0,0,0.16417161,91.649668,47.804441)"
       id="g856"
       style="fill:none;stroke-width:15.7417;stroke-miterlimit:4;stroke-dasharray:none">
      <path
         style="stroke-width:15.7417;stroke-miterlimit:4;stroke-dasharray:none"
         d="M 161,61 H 21 C 9.9543,61 1,69.9543 1,81 v 100 c 0,11.046 8.9543,20 20,20 h 140 c 11.046,0 20,-8.954 20,-20 V 81 c 0,-11.0457 -8.954,-20 -20,-20 z"
         stroke="#000000"
         stroke-width="2"
         stroke-linecap="round"
         stroke-linejoin="round"
         id="path833" />
      <path
         style="stroke-width:15.7417;stroke-miterlimit:4;stroke-dasharray:none"
         d="M 91,31 C 91,25.0666 89.2405,19.2664 85.9441,14.3329 82.6477,9.39943 77.9623,5.55426 72.4805,3.28363 66.9987,1.013 60.9667,0.418898 55.1473,1.57646 49.3279,2.73401 43.9824,5.59124 39.7868,9.78681 35.5912,13.9824 32.734,19.3279 31.5765,25.1473 30.4189,30.9667 31.013,36.9987 33.2836,42.4805 35.5543,47.9623 39.3994,52.6477 44.3329,55.9441 49.2664,59.2405 55.0666,61 61,61"
         stroke="#000000"
         stroke-width="2"
         stroke-linecap="round"
         stroke-linejoin="round"
         id="path835" />
      <path
         style="stroke-width:15.7417;stroke-miterlimit:4;stroke-dasharray:none"
         d="m 121,61 c 5.933,0 11.734,-1.7595 16.667,-5.0559 4.934,-3.2964 8.779,-7.9818 11.049,-13.4636 2.271,-5.4818 2.865,-11.5138 1.708,-17.3332 -1.158,-5.8194 -4.015,-11.1649 -8.211,-15.36049 -4.195,-4.19557 -9.541,-7.0528 -15.36,-8.21035 C 121.033,0.418898 115.001,1.013 109.519,3.28363 104.038,5.55426 99.3524,9.39943 96.0559,14.3329 92.7595,19.2664 91,25.0666 91,31"
         stroke="#000000"
         stroke-width="2"
         stroke-linecap="round"
         stroke-linejoin="round"
         id="path837" />
      <path
         style="stroke-width:15.7417;stroke-miterlimit:4;stroke-dasharray:none"
         d="M 91,31 V 201"
         stroke="#000000"
         stroke-width="2"
         stroke-linecap="round"
         stroke-linejoin="round"
         id="path839" />
      <path
         style="stroke-width:15.7417;stroke-miterlimit:4;stroke-dasharray:none"
         d="M 181,131 H 1"
         stroke="#000000"
         stroke-width="2"
         stroke-linecap="round"
         stroke-linejoin="round"
         id="path841" />
    </g>
    <g
       transform="matrix(0.17009344,0,0,0.17009344,-6.0849238,139.85003)"
       id="g869"
       style="fill:none">
      <path
         d="m 100.282,90 c -2.6523,0 -5.1958,1.0536 -7.0712,2.9289 -1.8754,1.8754 -2.9289,4.4189 -2.9289,7.0711 v 30 c 0,2.652 1.0535,5.196 2.9289,7.071 1.8754,1.875 4.4189,2.929 7.0712,2.929 2.652,0 5.196,-1.054 7.071,-2.929 1.875,-1.875 2.929,-4.419 2.929,-7.071 v -30 c 0,-2.6522 -1.054,-5.1957 -2.929,-7.0711 C 105.478,91.0536 102.934,90 100.282,90 Z m 0,-30 c -1.9779,0 -3.9113,0.5865 -5.5558,1.6853 -1.6445,1.0988 -2.9263,2.6606 -3.6831,4.4879 -0.7569,1.8272 -0.9549,3.8379 -0.5691,5.7777 0.3859,1.9398 1.3383,3.7216 2.7368,5.1202 1.3985,1.3985 3.1804,2.3509 5.1202,2.7368 1.94,0.3858 3.95,0.1878 5.778,-0.5691 1.827,-0.7569 3.389,-2.0386 4.488,-3.6831 1.098,-1.6445 1.685,-3.5779 1.685,-5.5557 0,-2.6522 -1.054,-5.1957 -2.929,-7.0711 C 105.478,61.0536 102.934,60 100.282,60 Z m 0,-60 C 87.1497,0 74.1461,2.58658 62.0135,7.61205 49.881,12.6375 38.857,20.0035 29.5712,29.2893 10.8175,48.043 0.281864,73.4784 0.281864,100 0.194442,123.091 8.18979,145.485 22.8819,163.3 l -20.00004,20 c -1.38757,1.406 -2.327535,3.192 -2.701276,5.132 -0.373742,1.94 -0.164515,3.947 0.601279,5.768 0.830577,1.799 2.177037,3.311 3.868467,4.344 1.69143,1.033 3.65154,1.539 5.63157,1.456 h 90.0001 c 26.522,0 51.957,-10.536 70.711,-29.289 18.753,-18.754 29.289,-44.189 29.289,-70.711 0,-26.5216 -10.536,-51.957 -29.289,-70.7107 C 152.239,10.5357 126.804,0 100.282,0 Z m 0,180 H 34.3819 l 9.3,-9.3 c 0.9448,-0.926 1.6965,-2.031 2.2115,-3.249 0.515,-1.219 0.783,-2.528 0.7885,-3.851 -0.0376,-2.638 -1.1159,-5.154 -3,-7 C 30.5877,143.52 22.4336,126.305 20.6088,107.888 18.7839,89.4705 23.4013,70.9901 33.6741,55.5952 43.947,40.2004 59.2398,28.8436 76.947,23.4597 c 17.7073,-5.3838 36.733,-4.4617 53.837,2.6094 17.104,7.0711 31.226,19.8536 39.962,36.1698 8.736,16.3162 11.545,35.1565 7.947,53.3111 -3.597,18.155 -13.378,34.5 -27.676,46.252 -14.297,11.752 -32.228,18.183 -50.735,18.198 z"
         fill="#000000"
         id="path858" />
    </g>
    <g
       transform="matrix(0.15152795,0,0,0.15152795,67.063774,128.96548)"
       id="g882"
       style="fill:none;stroke:#000000;stroke-width:0;stroke-miterlimit:4;stroke-dasharray:none;stroke-opacity:1">
      <path
         style="stroke:#000000;stroke-width:0;stroke-miterlimit:4;stroke-dasharray:none;stroke-opacity:1"
         d="m 24,344 h 200 v 72 h -80 v 32 h 192 v -32 h -80 v -72 h 200 c 6.363,-0.007 12.463,-2.538 16.962,-7.038 4.5,-4.499 7.031,-10.599 7.038,-16.962 V 24 C 479.993,17.6371 477.462,11.5369 472.962,7.03762 468.463,2.53835 462.363,0.00741045 456,0 H 24 C 17.6371,0.00741045 11.5369,2.53835 7.03762,7.03762 2.53835,11.5369 0.00741045,17.6371 0,24 v 296 c 0.00741045,6.363 2.53835,12.463 7.03762,16.962 C 11.5369,341.462 17.6371,343.993 24,344 Z M 32,32 H 448 V 312 H 32 Z"
         fill="#000000"
         id="path871" />
    </g>
    <g
       transform="matrix(0.16681475,0,0,0.16681475,90.443655,229.97016)"
       id="g898"
       style="fill:none;stroke-width:16.4976;stroke-miterlimit:4;stroke-dasharray:none">
      <path
         style="stroke-width:16.4976;stroke-miterlimit:4;stroke-dasharray:none"
         d="m 88.3444,101 c 27.6146,0 49.9996,-22.3858 49.9996,-50 0,-27.6142 -22.385,-50 -49.9996,-50 -27.6143,0 -50,22.3858 -50,50 0,27.6142 22.3857,50 50,50 z"
         stroke="#000000"
         stroke-width="2"
         id="path884" />
      <path
         style="stroke-width:16.4976;stroke-miterlimit:4;stroke-dasharray:none"
         d="m 138.344,121 h 3.52 c 7.311,0.002 14.37,2.674 19.85,7.513 5.48,4.839 9.004,11.513 9.91,18.767 l 3.91,31.24 c 0.352,2.814 0.101,5.671 -0.736,8.381 -0.837,2.71 -2.24,5.211 -4.117,7.337 -1.878,2.126 -4.186,3.828 -6.771,4.994 -2.586,1.166 -5.389,1.769 -8.226,1.768 H 21.0044 c -2.8362,0.001 -5.6401,-0.602 -8.2256,-1.768 -2.5855,-1.166 -4.89343,-2.868 -6.77069,-4.994 -1.87726,-2.126 -3.28088,-4.627 -4.11771,-7.337 -0.83683,-2.71 -1.087729,-5.567 -0.73604,-8.381 l 3.9,-31.24 c 0.90696,-7.258 4.43415,-13.934 9.91834,-18.774 5.4841,-4.839 12.5474,-7.509 19.8617,-7.506 h 3.51"
         stroke="#000000"
         stroke-width="2"
         stroke-linecap="round"
         stroke-linejoin="round"
         id="path886" />
    </g>
    <g
       transform="matrix(0.16018991,0,0,0.16018991,178.59374,146.04186)"
       id="g911"
       style="fill:none">
      <path
         d="m 209.4,79.575 -22.5,-52.5 c -0.574,-1.3556 -1.535,-2.5123 -2.762,-3.3258 C 182.911,22.9356 181.472,22.5012 180,22.5 h -22.5 v -15 c 0,-1.98912 -0.79,-3.89678 -2.197,-5.3033 C 153.897,0.790178 151.989,0 150,0 H 7.5 C 5.51088,0 3.60322,0.790178 2.1967,2.1967 0.790176,3.60322 0,5.51088 0,7.5 V 135 c 0,1.989 0.790176,3.897 2.1967,5.303 1.40652,1.407 3.31418,2.197 5.3033,2.197 h 16.05 c 1.7271,6.355 5.4975,11.966 10.7295,15.966 5.2319,3.999 11.6347,6.167 18.2205,6.167 6.5858,0 12.9886,-2.168 18.2205,-6.167 5.232,-4 9.0024,-9.611 10.7295,-15.966 h 47.1 c 1.727,6.355 5.498,11.966 10.729,15.966 5.232,3.999 11.635,6.167 18.221,6.167 6.586,0 12.989,-2.168 18.221,-6.167 5.231,-4 9.002,-9.611 10.729,-15.966 h 16.05 c 1.989,0 3.897,-0.79 5.303,-2.197 C 209.21,138.897 210,136.989 210,135 V 82.5 c -0.002,-1.0054 -0.206,-2.0001 -0.6,-2.925 z M 157.5,37.5 h 17.55 L 191.1,75 H 157.5 Z M 52.5,150 c -2.9667,0 -5.8668,-0.88 -8.3336,-2.528 -2.4667,-1.648 -4.3893,-3.991 -5.5246,-6.732 -1.1353,-2.741 -1.4324,-5.757 -0.8536,-8.666 0.5788,-2.91 2.0074,-5.583 4.1052,-7.681 2.0978,-2.097 4.7705,-3.526 7.6802,-4.105 2.9098,-0.579 5.9258,-0.282 8.6666,0.854 2.7409,1.135 5.0836,3.058 6.7318,5.524 1.6483,2.467 2.528,5.367 2.528,8.334 0,3.978 -1.5804,7.794 -4.3934,10.607 C 60.2936,148.42 56.4782,150 52.5,150 Z m 76.05,-22.5 h -47.1 c -1.7271,-6.355 -5.4975,-11.966 -10.7295,-15.966 -5.2319,-3.999 -11.6347,-6.166 -18.2205,-6.166 -6.5858,0 -12.9886,2.167 -18.2205,6.166 -5.232,4 -9.0024,9.611 -10.7295,15.966 H 15 V 15 h 127.5 v 94.2 c -3.415,1.982 -6.405,4.619 -8.799,7.759 -2.394,3.141 -4.145,6.723 -5.151,10.541 z M 157.5,150 c -2.967,0 -5.867,-0.88 -8.334,-2.528 -2.466,-1.648 -4.389,-3.991 -5.524,-6.732 -1.136,-2.741 -1.433,-5.757 -0.854,-8.666 0.579,-2.91 2.008,-5.583 4.105,-7.681 2.098,-2.097 4.771,-3.526 7.681,-4.105 2.909,-0.579 5.925,-0.282 8.666,0.854 2.741,1.135 5.084,3.058 6.732,5.524 1.648,2.467 2.528,5.367 2.528,8.334 0,3.978 -1.58,7.794 -4.393,10.607 C 165.294,148.42 161.478,150 157.5,150 Z M 195,127.5 h -8.55 c -1.659,-6.424 -5.399,-12.116 -10.638,-16.187 C 170.574,107.242 164.134,105.022 157.5,105 V 90 H 195 Z"
         fill="#000000"
         id="path900" />
    </g>
    <g
       transform="matrix(0.17764881,0,0,0.17764881,16.630951,207.88691)"
       id="g927"
       style="fill:none">
      <path
         d="m 100,180 c 21.217,0 41.566,-8.429 56.569,-23.431 C 171.571,141.566 180,121.217 180,100 180,78.7827 171.571,58.4344 156.569,43.4315 141.566,28.4285 121.217,20 100,20 78.7827,20 58.4344,28.4285 43.4315,43.4315 28.4285,58.4344 20,78.7827 20,100 c 0,21.217 8.4285,41.566 23.4315,56.569 C 58.4344,171.571 78.7827,180 100,180 Z m 0,20 C 44.77,200 0,155.23 0,100 0,44.77 44.77,0 100,0 c 55.23,0 100,44.77 100,100 0,55.23 -44.77,100 -100,100 z"
         fill="#000000"
         id="path913" />
      <path
         d="m 132.64,68.3302 -8.05,-0.6 -5.92,-5.89 5.92,5.9 c 0,0 7.7,0.56 8.05,0.6 0.37,0.02 0.8,0.3 0.88,0.8 l 10.91,73.8498 -30.9,6.68 L 56.5002,139 c 0,0 7.32,-56.5998 7.6,-58.5998 0.36,-2.64 0.45,-2.73 3.25,-3.6 l 9.02,-2.8 c 1.94,-8.2 8.1,-24.32 21,-24.32 1.68,0 3.6298,0.9 5.1998,2.99 0.157,-0.0111 0.313,-0.0177 0.47,-0.02 5.54,0 8.68,4.72 10.47,9.85 l 2.99,-0.92 c 0.439,-0.1243 0.898,-0.1583 1.35,-0.1 z m -29.6,17.08 c 0,0 -2.57,-1.5 -7.7898,-1.5 -13.53,0 -20.23,9.04 -20.23,18.3798 0,11.1 11.07,11.4 11.07,18.15 0.0046,0.52 -0.0968,1.036 -0.298,1.516 -0.2012,0.479 -0.498,0.913 -0.8722,1.274 -0.3743,0.361 -0.8183,0.642 -1.3048,0.826 -0.4865,0.184 -1.0053,0.267 -1.525,0.244 -4.34,0 -9.48,-4.41 -9.48,-4.41 l -2.62,8.66 c 0,0 5,6.09 14.8,6.09 8.15,0 14.2,-6.14 14.2,-15.68 0,-12.13 -13.5,-14.11 -13.5,-19.2898 0,-0.95 0.31,-4.71 6.31,-4.71 4.1,0 7.43,1.78 7.43,1.78 z m 7.32,-21.95 c -1.23,-3.73 -3.13,-6.98 -5.98,-7.33 0.71,2.03 1.15,4.6 1.15,7.79 v 1.04 z m -9.52,-6.7 c -3.1398,1.35 -6.7398,4.92 -8.6598,12.33 l 9.9698,-3.08 v -0.56 c 0,-3.85 -0.52,-6.7 -1.3,-8.7 z m -3.8298,-3.63 c -9.26,0 -14.47,12.16 -16.66,19.62 l 7.88,-2.44 c 1.87,-9.78 6.3,-14.68 10.43,-16.62 -0.4799,-0.3508 -1.0557,-0.5463 -1.65,-0.56 z"
         fill="#000000"
         id="path915" />
    </g>
    <g
       transform="matrix(0.18273682,0,0,0.18273682,157.31021,205.38878)"
       id="g940"
       style="fill:none;stroke:#000000;stroke-width:3.77953;stroke-miterlimit:4;stroke-dasharray:none;stroke-opacity:1">
      <path
         style="stroke:#000000;stroke-width:3.77953;stroke-miterlimit:4;stroke-dasharray:none;stroke-opacity:1"
         d="m 60,78 c 0,-1.5913 0.6321,-3.1174 1.7574,-4.2426 C 62.8826,72.6321 64.4087,72 66,72 h 42 c 1.591,0 3.117,0.6321 4.243,1.7574 1.125,1.1252 1.757,2.6513 1.757,4.2426 0,1.5913 -0.632,3.1174 -1.757,4.2426 C 111.117,83.3679 109.591,84 108,84 H 66 C 64.4087,84 62.8826,83.3679 61.7574,82.2426 60.6321,81.1174 60,79.5913 60,78 Z m 0,36 c 0,-1.591 0.6321,-3.117 1.7574,-4.243 C 62.8826,108.632 64.4087,108 66,108 h 42 c 1.591,0 3.117,0.632 4.243,1.757 1.125,1.126 1.757,2.652 1.757,4.243 0,1.591 -0.632,3.117 -1.757,4.243 C 111.117,119.368 109.591,120 108,120 H 66 c -1.5913,0 -3.1174,-0.632 -4.2426,-1.757 C 60.6321,117.117 60,115.591 60,114 Z m 0,36 c 0,-1.591 0.6321,-3.117 1.7574,-4.243 C 62.8826,144.632 64.4087,144 66,144 h 42 c 1.591,0 3.117,0.632 4.243,1.757 1.125,1.126 1.757,2.652 1.757,4.243 0,1.591 -0.632,3.117 -1.757,4.243 C 111.117,155.368 109.591,156 108,156 H 66 c -1.5913,0 -3.1174,-0.632 -4.2426,-1.757 C 60.6321,153.117 60,151.591 60,150 Z M 48,78 c 0,2.3869 -0.9482,4.6761 -2.636,6.364 C 43.6761,86.0518 41.3869,87 39,87 36.6131,87 34.3239,86.0518 32.636,84.364 30.9482,82.6761 30,80.3869 30,78 30,75.6131 30.9482,73.3239 32.636,71.636 34.3239,69.9482 36.6131,69 39,69 c 2.3869,0 4.6761,0.9482 6.364,2.636 C 47.0518,73.3239 48,75.6131 48,78 Z m 0,36 c 0,2.387 -0.9482,4.676 -2.636,6.364 C 43.6761,122.052 41.3869,123 39,123 36.6131,123 34.3239,122.052 32.636,120.364 30.9482,118.676 30,116.387 30,114 c 0,-2.387 0.9482,-4.676 2.636,-6.364 C 34.3239,105.948 36.6131,105 39,105 c 2.3869,0 4.6761,0.948 6.364,2.636 C 47.0518,109.324 48,111.613 48,114 Z m -9,45 c 2.3869,0 4.6761,-0.948 6.364,-2.636 C 47.0518,154.676 48,152.387 48,150 48,147.613 47.0518,145.324 45.364,143.636 43.6761,141.948 41.3869,141 39,141 c -2.3869,0 -4.6761,0.948 -6.364,2.636 C 30.9482,145.324 30,147.613 30,150 c 0,2.387 0.9482,4.676 2.636,6.364 C 34.3239,158.052 36.6131,159 39,159 Z M 37.02,12 C 38.2613,8.48906 40.561,5.44954 43.6021,3.30034 46.6432,1.15113 50.2761,-0.00194976 54,2.47484e-6 H 90 C 93.7239,-0.00194976 97.3568,1.15113 100.398,3.30034 103.439,5.44954 105.739,8.48906 106.98,12 H 126 c 4.774,0 9.352,1.8964 12.728,5.2721 C 142.104,20.6477 144,25.2261 144,30 v 144 c 0,4.774 -1.896,9.352 -5.272,12.728 C 135.352,190.104 130.774,192 126,192 H 18 C 13.2261,192 8.64773,190.104 5.27208,186.728 1.89642,183.352 0,178.774 0,174 V 30 C 0,25.2261 1.89642,20.6477 5.27208,17.2721 8.64773,13.8964 13.2261,12 18,12 Z M 54,12 c -1.5913,0 -3.1174,0.6321 -4.2426,1.7574 C 48.6321,14.8826 48,16.4087 48,18 c 0,1.5913 0.6321,3.1174 1.7574,4.2426 C 50.8826,23.3679 52.4087,24 54,24 h 36 c 1.5913,0 3.1174,-0.6321 4.2426,-1.7574 C 95.3679,21.1174 96,19.5913 96,18 96,16.4087 95.3679,14.8826 94.2426,13.7574 93.1174,12.6321 91.5913,12 90,12 Z M 37.02,24 H 18 c -1.5913,0 -3.1174,0.6321 -4.2426,1.7574 C 12.6321,26.8826 12,28.4087 12,30 v 144 c 0,1.591 0.6321,3.117 1.7574,4.243 C 14.8826,179.368 16.4087,180 18,180 h 108 c 1.591,0 3.117,-0.632 4.243,-1.757 C 131.368,177.117 132,175.591 132,174 V 30 c 0,-1.5913 -0.632,-3.1174 -1.757,-4.2426 C 129.117,24.6321 127.591,24 126,24 h -19.02 c -1.241,3.5109 -3.541,6.5505 -6.582,8.6997 C 97.3568,34.8489 93.7239,36.002 90,36 H 54 C 50.2761,36.002 46.6432,34.8489 43.6021,32.6997 40.561,30.5505 38.2613,27.5109 37.02,24 Z"
         fill="#000000"
         id="path929" />
    </g>
    <g
       transform="translate(3.0238095,-6.8035714)"
       id="g987">
      <g
         style="fill:none"
         id="g955"
         transform="matrix(0.11743229,0,0,0.11743229,153.04815,91.063344)">
        <path
           id="path944"
           fill="#000000"
           d="M 226.422,184.968 C 249.138,164.723 262,137.738 262,109.734 262,79.9733 248.068,52.1402 222.77,31.3574 198.148,11.1372 165.558,0 130.998,0 96.4384,0 63.8482,11.1372 39.2302,31.3589 13.932,52.1402 0,79.9733 0,109.734 c 0,29.761 13.932,57.594 39.2302,78.377 24.618,20.221 57.2082,31.358 91.7678,31.358 4.605,0 9.238,-0.203 13.833,-0.607 l 7.85,6.803 c 27.041,23.434 61.624,36.334 97.406,36.335 h 11.909 v -25.349 l -3.488,-3.487 c -13.759,-13.8 -24.662,-30.178 -32.086,-48.196 z m -58.142,22.697 -15.751,-13.652 -5.251,0.644 c -5.402,0.661 -10.838,0.992 -16.28,0.992 -59.0979,0 -107.1802,-38.541 -107.1802,-85.915 0,-47.3735 48.0823,-85.9158 107.1802,-85.9158 59.098,0 107.18,38.5415 107.18,85.9158 0,23.602 -11.775,45.637 -33.155,62.045 l -6.859,5.263 3.164,8.958 c 6.486,18.295 16.019,35.361 28.196,50.477 -22.677,-3.785 -43.87,-13.755 -61.244,-28.812 z" />
      </g>
      <g
         style="fill:none"
         id="g968"
         transform="matrix(0.11826997,0,0,0.11826997,147.33511,83.81622)">
        <path
           id="path957"
           fill="#000000"
           d="m 33.4251,250.333 c 11.33,-15.743 20.2257,-33.422 26.3316,-52.332 l 3.1923,-9.943 -6.9649,-5.868 C 35.4925,164.931 24.2074,141.765 24.2074,116.962 c 0,-49.8417 46.1521,-90.3906 102.8816,-90.3906 41.733,0 77.741,21.9464 93.862,53.392 2.993,-0.1594 5.999,-0.2491 9.019,-0.2491 6.065,0 12.075,0.323 18.03,0.969 C 241.77,62.9676 230.951,46.7956 216.077,33.3853 192.2,11.8567 160.601,0 127.089,0 93.5766,0 61.9769,11.8567 38.0994,33.3853 13.5304,55.5384 0,85.2195 0,116.962 c 0,29.726 12.37,58.37 34.2307,79.916 -7.134,18.845 -17.5582,35.975 -30.68508,50.426 L 0,251.196 V 279 h 12.1037 c 22.382,-0.003 44.4563,-5.724 64.4756,-16.711 -2.1952,-9.133 -3.4815,-18.5 -3.8361,-27.937 -12.1508,7.817 -25.4597,13.226 -39.3181,15.981 z" />
      </g>
    </g>
    <g
       transform="matrix(0.13629396,0,0,0.13629396,27.217525,69.228769)"
       id="g981"
       style="fill:none">
      <path
         d="M 172.5,0 H 67.5 C 55.125,0 45,10.125 45,22.5 v 195 c 0,12.375 10.125,22.5 22.5,22.5 h 105 c 12.375,0 22.5,-10.125 22.5,-22.5 V 22.5 C 195,10.125 184.875,0 172.5,0 Z M 90,11.25 h 60 v 7.5 H 90 Z M 120,225 c -3.978,0 -7.794,-1.58 -10.607,-4.393 C 106.58,217.794 105,213.978 105,210 c 0,-3.978 1.58,-7.794 4.393,-10.607 C 112.206,196.58 116.022,195 120,195 c 3.978,0 7.794,1.58 10.607,4.393 2.813,2.813 4.393,6.629 4.393,10.607 0,3.978 -1.58,7.794 -4.393,10.607 C 127.794,223.42 123.978,225 120,225 Z m 60,-45 H 60 V 30 h 120 z"
         fill="#000000"
         id="path970" />
    </g>
  </g>
</svg>
