<svg width="119" height="111" viewBox="0 0 119 111" fill="none" xmlns="http://www.w3.org/2000/svg">
<path d="M66.85 8.05001C66.85 6.10067 67.6244 4.23117 69.0028 2.85278C70.3812 1.47438 72.2507 0.700012 74.2 0.700012H96.25C98.1994 0.700012 100.069 1.47438 101.447 2.85278C102.826 4.23117 103.6 6.10067 103.6 8.05001V22.75C103.6 24.6994 102.826 26.5689 101.447 27.9472C100.069 29.3256 98.1994 30.1 96.25 30.1H74.2C72.2507 30.1 70.3812 29.3256 69.0028 27.9472C67.6244 26.5689 66.85 24.6994 66.85 22.75V8.05001ZM96.25 8.05001H74.2V22.75H96.25V8.05001ZM85.225 37.45C86.1997 37.45 87.1344 37.8372 87.8236 38.5264C88.5128 39.2156 88.9 40.1503 88.9 41.125V83.7036L97.3231 75.2731C98.0132 74.583 98.9491 74.1954 99.925 74.1954C100.901 74.1954 101.837 74.583 102.527 75.2731C103.217 75.9632 103.605 76.8991 103.605 77.875C103.605 78.8509 103.217 79.7868 102.527 80.4769L87.8269 95.1769C87.4855 95.5192 87.08 95.7907 86.6335 95.976C86.187 96.1612 85.7084 96.2566 85.225 96.2566C84.7416 96.2566 84.263 96.1612 83.8165 95.976C83.37 95.7907 82.9645 95.5192 82.6231 95.1769L67.9231 80.4769C67.233 79.7868 66.8454 78.8509 66.8454 77.875C66.8454 76.8991 67.233 75.9632 67.9231 75.2731C68.6132 74.583 69.5491 74.1954 70.525 74.1954C71.5009 74.1954 72.4369 74.583 73.1269 75.2731L81.55 83.7036V41.125C81.55 40.1503 81.9372 39.2156 82.6264 38.5264C83.3156 37.8372 84.2503 37.45 85.225 37.45ZM15.4 74.2C15.4 72.2507 16.1744 70.3812 17.5528 69.0028C18.9312 67.6244 20.8007 66.85 22.75 66.85H44.8C46.7494 66.85 48.6189 67.6244 49.9972 69.0028C51.3756 70.3812 52.15 72.2507 52.15 74.2V88.9C52.15 90.8494 51.3756 92.7189 49.9972 94.0973C48.6189 95.4756 46.7494 96.25 44.8 96.25H22.75C20.8007 96.25 18.9312 95.4756 17.5528 94.0973C16.1744 92.7189 15.4 90.8494 15.4 88.9V74.2ZM44.8 74.2H22.75V88.9H44.8V74.2ZM4.37501 81.55C5.34968 81.55 6.28443 81.9372 6.97363 82.6264C7.66283 83.3156 8.05001 84.2503 8.05001 85.225V96.25C8.05001 98.1994 8.82438 100.069 10.2028 101.447C11.5812 102.826 13.4507 103.6 15.4 103.6H103.6C105.549 103.6 107.419 102.826 108.797 101.447C110.176 100.069 110.95 98.1994 110.95 96.25V85.225C110.95 84.2503 111.337 83.3156 112.026 82.6264C112.716 81.9372 113.65 81.55 114.625 81.55C115.6 81.55 116.534 81.9372 117.224 82.6264C117.913 83.3156 118.3 84.2503 118.3 85.225V96.25C118.3 100.149 116.751 103.888 113.994 106.644C111.238 109.401 107.499 110.95 103.6 110.95H15.4C11.5013 110.95 7.76233 109.401 5.00554 106.644C2.24876 103.888 0.700012 100.149 0.700012 96.25V85.225C0.700012 84.2503 1.0872 83.3156 1.7764 82.6264C2.46559 81.9372 3.40034 81.55 4.37501 81.55Z" fill="url(#paint0_linear_206_10)"/>
<defs>
<linearGradient id="paint0_linear_206_10" x1="59.5" y1="0.700012" x2="59.5" y2="110.95" gradientUnits="userSpaceOnUse">
<stop stop-color="#C15BFF"/>
<stop offset="1" stop-color="#26CFFD"/>
</linearGradient>
</defs>
</svg>
