<svg width="121" height="120" viewBox="0 0 121 120" fill="none" xmlns="http://www.w3.org/2000/svg">
<path d="M116.349 4.36788C115.018 3.03584 113.437 1.97916 111.698 1.25821C109.958 0.537261 108.093 0.166183 106.21 0.166183C104.327 0.166183 102.463 0.537261 100.723 1.25821C98.9835 1.97916 97.403 3.03584 96.072 4.36788L56.676 43.7639C53.4079 47.0339 51.0897 51.1304 49.9691 55.6157L47.1761 66.751C46.9426 67.6897 46.9561 68.6728 47.2152 69.6048C47.4743 70.5367 47.9701 71.3858 48.6546 72.0693C49.339 72.7528 50.1887 73.2475 51.121 73.5054C52.0533 73.7632 53.0365 73.7753 53.9749 73.5406L65.0917 70.7567C69.5771 69.6362 73.6736 67.318 76.9436 64.0499L116.358 24.6447C117.69 23.3137 118.747 21.7332 119.468 19.9936C120.189 18.254 120.56 16.3894 120.56 14.5063C120.56 12.6232 120.189 10.7586 119.468 9.01899C118.747 7.27939 117.69 5.69891 116.358 4.36788H116.349ZM78.0737 9.37506L68.8862 18.5626H18.75C16.3133 18.5626 13.9764 19.5305 12.2535 21.2535C10.5305 22.9765 9.5625 25.3134 9.5625 27.7501V82.8475C9.5625 85.2842 10.5305 87.621 12.2535 89.344C13.9764 91.067 16.3133 92.035 18.75 92.035H92.25C94.6867 92.035 97.0236 91.067 98.7465 89.344C100.47 87.621 101.438 85.2842 101.438 82.8475V52.5563L110.625 43.3688V82.8475C110.625 87.7208 108.689 92.3946 105.243 95.8406C101.797 99.2866 97.1234 101.222 92.25 101.222H73.9026V110.502H87.6838C88.9022 110.502 90.0706 110.986 90.9321 111.847C91.7936 112.709 92.2776 113.877 92.2776 115.096C92.2776 116.314 91.7936 117.482 90.9321 118.344C90.0706 119.205 88.9022 119.689 87.6838 119.689L23.3989 119.699C22.1805 119.699 21.0121 119.215 20.1506 118.353C19.2891 117.492 18.8051 116.323 18.8051 115.105C18.8051 113.886 19.2891 112.718 20.1506 111.857C21.0121 110.995 22.1805 110.511 23.3989 110.511H37.1709V101.232H18.75C13.8766 101.232 9.20289 99.2958 5.75691 95.8498C2.31093 92.4038 0.375 87.73 0.375 82.8567V27.7501C0.375 22.8767 2.31093 18.203 5.75691 14.757C9.20289 11.311 13.8766 9.37506 18.75 9.37506H78.0737ZM64.7151 110.511V101.232H46.3584V110.511H64.7151ZM53.9657 73.5406L52.8632 69.0938L53.9657 73.5406Z" fill="url(#paint0_linear_206_5)"/>
<defs>
<linearGradient id="paint0_linear_206_5" x1="60.4673" y1="0.166183" x2="60.4673" y2="119.699" gradientUnits="userSpaceOnUse">
<stop stop-color="#C15BFF"/>
<stop offset="1" stop-color="#21D4FD"/>
</linearGradient>
</defs>
</svg>
