<svg width="147" height="147" viewBox="0 0 147 147" fill="none" xmlns="http://www.w3.org/2000/svg">
<path d="M64.3125 76.2103L52.4147 64.3125L45.9375 70.7897L64.3125 89.1647L101.062 52.4147L94.5853 45.9375L64.3125 76.2103Z" fill="url(#paint0_linear_206_21)"/>
<path d="M73.5 137.812L45.129 122.685C37.041 118.382 30.2773 111.958 25.5639 104.102C20.8505 96.2463 18.3653 87.2552 18.375 78.0938V18.375C18.3775 15.9391 19.3462 13.6036 21.0687 11.8811C22.7911 10.1587 25.1266 9.18993 27.5625 9.1875H119.438C121.873 9.18993 124.209 10.1587 125.931 11.8811C127.654 13.6036 128.623 15.9391 128.625 18.375V78.0938C128.635 87.2552 126.15 96.2463 121.436 104.102C116.723 111.958 109.959 118.382 101.871 122.685L73.5 137.812ZM27.5625 18.375V78.0938C27.5549 85.5899 29.5888 92.9465 33.446 99.3741C37.3032 105.802 42.838 111.057 49.4563 114.577L73.5 127.398L97.5437 114.582C104.163 111.062 109.698 105.805 113.555 99.3767C117.412 92.9482 119.446 85.5906 119.438 78.0938V18.375H27.5625Z" fill="url(#paint1_linear_206_21)"/>
<defs>
<linearGradient id="paint0_linear_206_21" x1="73.5" y1="45.9375" x2="73.5" y2="89.1647" gradientUnits="userSpaceOnUse">
<stop stop-color="#C15BFF"/>
<stop offset="1" stop-color="#29CEFD"/>
</linearGradient>
<linearGradient id="paint1_linear_206_21" x1="73.5" y1="9.1875" x2="73.5" y2="137.812" gradientUnits="userSpaceOnUse">
<stop stop-color="#C15BFF"/>
<stop offset="1" stop-color="#29CEFD"/>
</linearGradient>
</defs>
</svg>
